REM MD5 1d0d08adf70528ac7a5cdd1dc189a9a1
FILE "Hugo (Germany).bin" BINARY
  TRACK 01 MODE2/2352
    INDEX 01 00:00:00
  TRACK 02 AUDIO
    INDEX 00 25:33:58
    INDEX 01 25:35:58
  TRACK 03 AUDIO
    INDEX 00 27:45:12
    INDEX 01 27:47:12
  TRACK 04 AUDIO
    INDEX 00 29:25:60
    INDEX 01 29:27:60
  TRACK 05 AUDIO
    INDEX 00 30:40:08
    INDEX 01 30:42:08
REM LEADOUT 33:42:09
